<?xml version="1.0" encoding="utf-8"?>
<!-- Generator: Adobe Illustrator 18.0.0, SVG Export Plug-In . SVG Version: 6.00 Build 0)  -->
<!DOCTYPE svg PUBLIC "-//W3C//DTD SVG 1.1//EN" "http://www.w3.org/Graphics/SVG/1.1/DTD/svg11.dtd">
<svg version="1.1" id="Layer_1" xmlns="http://www.w3.org/2000/svg" xmlns:xlink="http://www.w3.org/1999/xlink" x="0px" y="0px"
	 viewBox="0 -36.4 283.5 249" enable-background="new 0 -36.4 283.5 249" xml:space="preserve">
<g id="Base" display="none">
	<rect x="35.4" y="0" display="inline" fill="#00FF00" width="212.6" height="212.6"/>
</g>
<g id="Layer_1_1_">
	<g>
		<g>
			<path fill="#444444" d="M122.4,0.7h55.2v0.9c0,6.2-11.1,7.1-18.7,8.6c-2.4,0-7.7,0.5-9.1,1.4c13.9,7.1,16.4,19.3,16.4,36.4
				c0,20.2-7.7,30.8-16.4,37.9c-4.8,4.8-9.1,8.2-9.1,13c0,4.8,5.8,9.6,12,15.3c10.6,9.1,25,21.6,25,42.8c0,22-9.6,37.9-27.9,46.6
				c-14.4,7.1-29.7,8.2-36,8.2c-0.9,0-1.4-0.5-2-0.5c0,0-0.5,0.5-0.9,0.5c-9.1,0-55.7-2.4-55.7-44.6c0-41.3,50.4-44.6,65.8-44.6h0.5
				c-8.6-12-7.1-24-7.1-24c-0.5,0-2,0-3.3,0c-5.8,0-16.8-0.9-26.4-7.1c-12.2-7.3-18-20.2-18-38.5C66.6,2.6,122,0.7,122.4,0.7z
				 M120.5,133.7c-0.9,0-2.4,0-3.8,0c-10.6,0.5-20.2,4.8-27.4,11.1c-6.7,6.2-10.6,14.4-10.1,22.6c1.4,16.8,19.3,26.4,41.3,25
				c21.6-1.4,36.4-13.9,35-30.8C154.6,145.3,141.1,133.7,120.5,133.7z M111.8,15.6c-1.4,0-2.9,0-4.8,0.5c-6.2,2-11.1,7.1-13.9,14.9
				c-2.4,7.7-2.9,15.8-0.5,25.5c4.3,16.4,16.4,28.4,28.4,28.4c1.4,0,2.9,0,4.3-0.5c13.5-3.8,21.6-23.5,15.8-42.8
				C135.3,21.3,126.2,15.6,111.8,15.6z M270.3,83.4v22.5h-36v36h-22.6v-36h-36.1V83.4h36V47.3h22.6v36h36.1V83.4z"/>
		</g>
		<g>
			<path fill="#333333" d="M122.4,0.7h55.2v0.9c0,6.2-11.1,7.1-18.7,8.6c-2.4,0-7.7,0.5-9.1,1.4c13.9,7.1,16.4,19.3,16.4,36.4
				c0,20.2-7.7,30.8-16.4,37.9c-4.8,4.8-9.1,8.2-9.1,13c0,4.8,5.8,9.6,12,15.3c10.6,9.1,25,21.6,25,42.8c0,22-9.6,37.9-27.9,46.6
				c-14.4,7.1-29.7,8.2-36,8.2c-0.9,0-1.4-0.5-2-0.5c0,0-0.5,0.5-0.9,0.5c-9.1,0-55.7-2.4-55.7-44.6c0-41.3,50.4-44.6,65.8-44.6h0.5
				c-8.6-12-7.1-24-7.1-24c-0.5,0-2,0-3.3,0c-5.8,0-16.8-0.9-26.4-7.1c-12.2-7.3-18-20.2-18-38.5C66.6,2.6,122,0.7,122.4,0.7z
				 M120.5,133.7c-0.9,0-2.4,0-3.8,0c-10.6,0.5-20.2,4.8-27.4,11.1c-6.7,6.2-10.6,14.4-10.1,22.6c1.4,16.8,19.3,26.4,41.3,25
				c21.6-1.4,36.4-13.9,35-30.8C154.6,145.3,141.1,133.7,120.5,133.7z M111.8,15.6c-1.4,0-2.9,0-4.8,0.5c-6.2,2-11.1,7.1-13.9,14.9
				c-2.4,7.7-2.9,15.8-0.5,25.5c4.3,16.4,16.4,28.4,28.4,28.4c1.4,0,2.9,0,4.3-0.5c13.5-3.8,21.6-23.5,15.8-42.8
				C135.3,21.3,126.2,15.6,111.8,15.6z M270.3,83.4v22.5h-36v36h-22.6v-36h-36.1V83.4h36V47.3h22.6v36h36.1V83.4z"/>
		</g>
	</g>
</g>
<g id="gUIDES">
</g>
</svg>
