<?xml version="1.0" encoding="utf-8"?>
<!-- Generator: Adobe Illustrator 18.0.0, SVG Export Plug-In . SVG Version: 6.00 Build 0)  -->
<!DOCTYPE svg PUBLIC "-//W3C//DTD SVG 1.1//EN" "http://www.w3.org/Graphics/SVG/1.1/DTD/svg11.dtd">
<svg version="1.1" id="Layer_1" xmlns="http://www.w3.org/2000/svg" xmlns:xlink="http://www.w3.org/1999/xlink" x="0px" y="0px"
	 viewBox="0 0 512 512" enable-background="new 0 0 512 512" xml:space="preserve">
<g id="Base" display="none">
	<rect display="inline" fill="#00FF00" width="512" height="512"/>
</g>
<g id="Layer_1_1_">
	<g>
		<g>
			<path fill="#444444" d="M430.8,166.4c0,3.9,0,7.7,0,11.6c0,120.4-91.5,258.2-258.2,258.2c-52,0-99.2-14.5-139.7-40.5
				c6.7,1,14.5,1,22.2,1c42.4,0,81.9-14.5,112.7-38.5c-39.5-1-73.2-27-84.8-63.6c4.8,1.9,10.6,1.9,16.4,1.9c8.7,0,16.4-1,24.1-2.9
				C82,285,51.1,248.3,51.1,204v-1c11.6,6.7,26,10.6,40.5,11.6c-24.1-16.4-40.5-44.3-40.5-76.1c0-16.4,4.8-31.8,12.5-45.3
				c45.3,54.9,111.8,91.5,187.9,94.4c-1.9-5.8-2.9-13.5-2.9-20.2c0-50.1,40.5-90.6,91.5-90.6c26,0,49.1,10.6,65.5,27.9
				c21.2-3.9,40.5-11.6,57.8-21.2c-6.7,21.2-21.2,38.5-39.5,50.1c18.3-2.9,35.7-7.7,52-14.5C463.5,137.5,448.1,153,430.8,166.4z"/>
		</g>
		<g>
			<path fill="#333333" d="M430.8,166.4c0,3.9,0,7.7,0,11.6c0,120.4-91.5,258.2-258.2,258.2c-52,0-99.2-14.5-139.7-40.5
				c6.7,1,14.5,1,22.2,1c42.4,0,81.9-14.5,112.7-38.5c-39.5-1-73.2-27-84.8-63.6c4.8,1.9,10.6,1.9,16.4,1.9c8.7,0,16.4-1,24.1-2.9
				C82,285,51.1,248.3,51.1,204v-1c11.6,6.7,26,10.6,40.5,11.6c-24.1-16.4-40.5-44.3-40.5-76.1c0-16.4,4.8-31.8,12.5-45.3
				c45.3,54.9,111.8,91.5,187.9,94.4c-1.9-5.8-2.9-13.5-2.9-20.2c0-50.1,40.5-90.6,91.5-90.6c26,0,49.1,10.6,65.5,27.9
				c21.2-3.9,40.5-11.6,57.8-21.2c-6.7,21.2-21.2,38.5-39.5,50.1c18.3-2.9,35.7-7.7,52-14.5C463.5,137.5,448.1,153,430.8,166.4z"/>
		</g>
	</g>
</g>
<g id="gUIDES">
</g>
</svg>
