<?xml version="1.0" encoding="utf-8"?>
<!-- Generator: Adobe Illustrator 18.0.0, SVG Export Plug-In . SVG Version: 6.00 Build 0)  -->
<!DOCTYPE svg PUBLIC "-//W3C//DTD SVG 1.1//EN" "http://www.w3.org/Graphics/SVG/1.1/DTD/svg11.dtd">
<svg version="1.1" id="Layer_1" xmlns="http://www.w3.org/2000/svg" xmlns:xlink="http://www.w3.org/1999/xlink" x="0px" y="0px"
	 viewBox="0 0 512 512" enable-background="new 0 0 512 512" xml:space="preserve">
<g id="Base" display="none">
	<rect display="inline" fill="#00FF00" width="512" height="512"/>
</g>
<g id="Layer_1_1_">
	<g>
		<g>
			<path fill="#444444" d="M79.3,132c-30.1,0-50.1-22.1-50.1-48.1c0-27.1,20.1-48.1,51.1-48.1s50.1,21.1,51.1,48.1
				C131.4,110,111.4,132,79.3,132z M32.1,170.1h96.3V480H32.1V170.1z M183.6,170.1h83.2l5,43.1h2c12-20.1,43.1-50.1,95.3-50.1
				c64.2,0,111.3,42.1,111.3,133.4V480h-96.3V308.5c0-40.1-14-67.2-49.1-67.2c-26.1,0-42.1,18-49.1,36.1c-3,6-3,15-3,24.1V480h-97.3
				V269.4C185.6,230.3,184.6,198.2,183.6,170.1z"/>
		</g>
		<g>
			<path fill="#333333" d="M79.3,132c-30.1,0-50.1-22.1-50.1-48.1c0-27.1,20.1-48.1,51.1-48.1s50.1,21.1,51.1,48.1
				C131.4,110,111.4,132,79.3,132z M32.1,170.1h96.3V480H32.1V170.1z M183.6,170.1h83.2l5,43.1h2c12-20.1,43.1-50.1,95.3-50.1
				c64.2,0,111.3,42.1,111.3,133.4V480h-96.3V308.5c0-40.1-14-67.2-49.1-67.2c-26.1,0-42.1,18-49.1,36.1c-3,6-3,15-3,24.1V480h-97.3
				V269.4C185.6,230.3,184.6,198.2,183.6,170.1z"/>
		</g>
	</g>
</g>
<g id="gUIDES">
</g>
</svg>
