<?xml version="1.0" standalone="no"?>

<svg viewBox="0 0 34 34" style="background-color:#ffffff00" version="1.1" xmlns="http://www.w3.org/2000/svg" xmlns:xlink="http://www.w3.org/1999/xlink" xml:space="preserve" x="0px" y="0px" width="100%" height="100%">
	<g id="Layer%201">
		<g>
			<path d="M 7.5 7 L 12.8 7 L 12.8 11.9 L 7.5 11.9 L 7.5 7 Z" fill="#ffffff"/>
			<path d="M 15.5 7 L 20.9 7 L 20.9 11.9 L 15.5 11.9 L 15.5 7 Z" fill="#ffffff"/>
			<path d="M 23.6 7 L 29 7 L 29 11.9 L 23.6 11.9 L 23.6 7 Z" fill="#ffffff"/>
			<path d="M 15.5 14.4 L 20.9 14.4 L 20.9 19.3 L 15.5 19.3 L 15.5 14.4 Z" fill="#ffffff"/>
			<path d="M 23.6 14.4 L 29 14.4 L 29 19.3 L 23.6 19.3 L 23.6 14.4 Z" fill="#ffffff"/>
			<path d="M 7.5 21.1 L 12.8 21.1 L 12.8 26 L 7.5 26 L 7.5 21.1 Z" fill="#ffffff"/>
			<path d="M 15.5 21.1 L 20.9 21.1 L 20.9 26 L 15.5 26 L 15.5 21.1 Z" fill="#ffffff"/>
			<path d="M 23.6 21.1 L 29 21.1 L 29 26 L 23.6 26 L 23.6 21.1 Z" fill="#ffffff"/>
			<path d="M 5.1 18.9 L 12.8 18.9 L 12.8 14.1 L 5.1 14.1 L 5.1 11.8 L 0 16.5 L 5.1 21.3 L 5.1 18.9 Z" fill="#ffffff"/>
		</g>
	</g>
</svg>