<?xml version="1.0" standalone="no"?>

<svg viewBox="0 0 50 50" style="background-color:#ff5722" version="1.1" xmlns="http://www.w3.org/2000/svg" xmlns:xlink="http://www.w3.org/1999/xlink" xml:space="preserve" x="0px" y="0px" width="100%" height="100%">
	<g id="Layer%201">
		<g>
			<path d="M 25.3 24.3 L 29.1 28 C 29.2 28.1 29.6 28.5 29.4 28.8 C 29.3 28.9 28.9 29.3 28.8 29.4 C 28.4 29.7 28.1 29.2 28 29.1 L 24.4 25.5 C 24.1 25.2 23.8 25 23.6 24.9 C 23.3 24.7 23.1 24.6 22.8 24.5 C 22.6 24.5 22.4 24.5 22.1 24.5 C 21.9 24.6 21.7 24.7 21.5 24.9 C 21.2 25.2 21.1 25.5 21 26 C 21 26.4 21 27 21.1 27.6 L 25.3 31.8 C 25.3 31.9 25.3 31.9 25.4 31.9 C 25.4 32 25.7 32.4 25.7 32.4 C 25.6 32.5 25.6 32.6 25.5 32.6 C 25.5 32.7 25.4 32.8 25.3 32.9 C 25.2 33 25.1 33.1 25 33.1 C 24.9 33.2 24.9 33.2 24.8 33.3 C 24.7 33.3 24.4 33 24.3 33 C 24.3 33 24.2 32.9 24.2 32.9 L 20.5 29.3 C 20.3 29 20 28.8 19.8 28.6 C 19.5 28.5 19.3 28.4 19 28.3 C 18.8 28.3 18.5 28.3 18.3 28.3 C 18.1 28.4 17.9 28.5 17.7 28.7 C 17.4 29 17.3 29.3 17.2 29.8 C 17.2 30.2 17.2 30.8 17.3 31.4 L 21.5 35.6 C 21.5 35.6 21.5 35.7 21.5 35.7 C 21.5 35.8 21.9 36.1 21.8 36.2 C 21.8 36.2 21.8 36.3 21.7 36.4 C 21.7 36.5 21.6 36.6 21.5 36.7 C 21.4 36.8 21.3 36.9 21.2 36.9 C 21.1 37 21 37 21 37 C 20.9 37.1 20.5 36.7 20.5 36.7 C 20.5 36.7 20.4 36.7 20.4 36.7 L 14.4 30.7 C 14.4 30.7 14.3 30.6 14.3 30.6 C 14.3 30.6 14.3 30.3 14.3 30.2 C 14.4 30.2 14.4 30 14.5 29.9 C 14.6 29.8 14.8 29.7 14.9 29.7 C 15 29.6 15.2 29.7 15.2 29.7 C 15.3 29.7 15.3 29.7 15.4 29.7 L 16.2 30.5 C 16.1 29.8 16.1 29.2 16.3 28.8 C 16.4 28.3 16.6 27.9 16.9 27.6 C 17.2 27.3 17.4 27.1 17.7 27 C 17.9 26.9 18.2 26.8 18.4 26.7 C 18.7 26.7 18.9 26.7 19.2 26.7 C 19.4 26.8 19.7 26.8 19.9 26.9 C 19.9 26.5 19.9 26.2 19.9 25.8 C 20 25.5 20 25.2 20.1 25 C 20.2 24.7 20.2 24.5 20.4 24.3 C 20.5 24.1 20.6 23.9 20.8 23.8 C 21.1 23.4 21.5 23.1 21.9 23 C 22.3 22.9 22.7 22.9 23.1 22.9 C 23.5 23 23.8 23.2 24.2 23.4 C 24.6 23.6 25 23.9 25.3 24.3 Z" fill="#ffffff"/>
			<path d="M 10 31.3 L 10 40 C 10 40.3 10.2 40.5 10.4 40.6 C 10.5 40.8 10.7 41 11 41 L 19.8 41 C 20.9 41 20.9 39 19.8 39 L 12 39 L 12 31.3 C 12 30.2 10 30.2 10 31.3 Z" fill="#ffffff"/>
			<path d="M 38.8 20 C 38.8 21.1 40.9 21.1 40.9 20 L 41 11 C 41 10.7 40.8 10.5 40.6 10.4 C 40.5 10.2 40.3 10 39.9 10 L 31 10.1 C 29.9 10.1 29.8 12.2 30.9 12.2 L 38.9 12.1 L 38.8 20 Z" fill="#ffffff"/>
			<path d="M 26 21 C 25.8 21 25.6 21.1 25.6 21.1 L 25 21.7 L 23.8 20.4 L 23.9 20.3 C 23.9 20.3 23.9 20.4 24.4 19.8 C 24.6 19.6 25.3 18.9 26 19 C 26.8 19 26.9 18.8 26.9 18.8 C 26.5 17.7 28.1 16.6 28.5 16.2 C 29.1 15.6 29.9 15.3 30.7 15.3 C 31.5 15.3 32.2 15.6 32.8 16.1 C 34.4 17.7 35.5 19 37.2 20.5 C 37.9 21.1 37.4 21.5 37.4 21.5 C 37.4 21.5 37 21.9 36.8 22.1 C 36.4 22.5 35.7 21.8 35.7 21.8 L 31.8 18 C 31.4 17.6 31 17.4 30.5 17.4 C 30 17.4 29.6 17.6 29.3 17.9 C 28.8 18.4 28.6 19 28.7 19.7 C 28.7 20.5 29.1 21.1 29.7 21.7 C 29.7 21.7 32.4 24.4 32.7 24.8 C 33.2 25.2 33.2 25.6 32.9 25.9 C 32.7 26.1 32.4 26.5 32.4 26.5 C 32.4 26.5 31.9 26.8 31.3 26.1 C 30.1 25 26.4 21.3 26.3 21.1 C 26.2 21.1 26.1 21.1 26 21 Z" fill="#ffffff"/>
		</g>
	</g>
</svg>