<?xml version="1.0" standalone="no"?>

<svg viewBox="0 0 50 50" style="background-color:#ff9c22" version="1.1" xmlns="http://www.w3.org/2000/svg" xmlns:xlink="http://www.w3.org/1999/xlink" xml:space="preserve" x="0px" y="0px" width="100%" height="100%">
	<g id="Layer%201">
		<g>
			<path d="M 29.5 18.5 C 30.5 22.5 33.5 27.5 35.5 31.5 L 28.5 31.5 L 28.5 42.5 L 21.5 42.5 L 21.5 31.5 L 14.5 31.5 C 16.5 27.5 19.5 22.5 20.5 18.5 L 29.5 18.5 Z" fill="#ffffff"/>
			<path d="M 28.8 9 L 28.8 10 C 28.8 10 33.2 7.5 32.8 10 C 32 14.6 35.9 16 35.9 16 C 35.9 16 34.5 9.2 33.3 8 C 32.1 6.8 30.1 7.6 30.1 7.6 C 30.1 7.6 29.5 8.5 28.8 9 ZM 21 9 L 21 10 C 21 10 16.8 7.5 17 10 C 17.4 16 14.1 15 14.1 15 C 14.1 15 15.3 9.2 16.5 8 C 17.7 6.8 19.8 7.6 19.8 7.6 C 19.8 7.6 20.3 8.5 21 9 ZM 20 12 C 20 9.2 22.2 7 25 7 C 27.8 7 30 9.2 30 12 C 30 14.8 27.8 17 25 17 C 22.2 17 20 14.8 20 12 Z" fill="#ffffff"/>
			<g>
				<rect x="19" y="8" width="2" height="3" fill="#ff007f"/>
				<rect x="29" y="8" width="2" height="3" fill="#ff007f"/>
			</g>
		</g>
	</g>
</svg>