<?xml version="1.0" encoding="utf-8"?>
<!-- Generator: Adobe Illustrator 19.2.0, SVG Export Plug-In . SVG Version: 6.00 Build 0)  -->
<svg version="1.1" id="Layer_1" xmlns="http://www.w3.org/2000/svg" xmlns:xlink="http://www.w3.org/1999/xlink" x="0px" y="0px"
	 viewBox="0 0 512 512" style="enable-background:new 0 0 512 512;" xml:space="preserve">
<style type="text/css">
	.st0{fill:#FFFFFF;}
</style>
<rect x="0" class="st0" width="512" height="512"/>
<path d="M350.9,95.8H164.5c-12.4,0-22.5,10.1-22.5,22.5l0.2,269.4c0,5.3,3.7,9.8,8.8,11l155.1,34.4c3.3,0.7,6.8-0.1,9.5-2.2
	c2.6-2.1,4.2-5.4,4.2-8.8v-26.2h31.2c12.4,0,22.5-10.1,22.5-22.5V118.2C373.4,105.8,363.3,95.8,350.9,95.8z M282,258.1l-105.7-26.7
	c-3.2-0.8-5.5-3.7-5.5-7.1v-35c0-4.7,4.5-8.2,9-7.1L285.6,209c3.2,0.8,5.5,3.7,5.5,7.1v35C291,255.8,286.6,259.3,282,258.1z
	 M319.7,373.2V152.5c0-5.3-3.7-9.9-9-11l-113.7-23.2l153.8,0l0,255L319.7,373.2z M350.9,373.2L350.9,373.2"/>
</svg>
