<?xml version="1.0" encoding="utf-8"?>
<!-- Generator: Adobe Illustrator 19.2.0, SVG Export Plug-In . SVG Version: 6.00 Build 0)  -->
<svg version="1.1" id="Layer_1" xmlns="http://www.w3.org/2000/svg" xmlns:xlink="http://www.w3.org/1999/xlink" x="0px" y="0px"
	 viewBox="0 0 180 96.8" style="enable-background:new 0 0 180 96.8;" xml:space="preserve">
<style type="text/css">
	.st0{fill:#FFFFFF;}
</style>
<g>
	<polygon class="st0" points="0,55.5 13.7,55.5 21.3,17.1 7.7,17.1 	"/>
	<polygon class="st0" points="8.9,11.1 22.5,11.1 24.7,0 11.1,0 	"/>
	<path class="st0" d="M19.1,66.3h13.7l8.3-41.6h10l1.6-7.7H42.5l0.3-1.8c0.6-3.3,1.7-7.1,6.8-7.1c3.1,0,6,0.3,8.8,1.6L60,1.6
		c-3-1-6.4-1.6-9.7-1.6C39.3,0,31.7,6.7,29,17.1h-4.8l-1.5,7.7h4.7L19.1,66.3z"/>
	<path class="st0" d="M62.4,56.4c16.2,0,27.4-15,27.4-27.3c0-8.9-8.3-12.8-16.2-12.8c-17.7,0-27.4,16.2-27.4,27.3
		C46.2,52.4,54.6,56.4,62.4,56.4"/>
	<path class="st0" d="M105.6,56.4c16.2,0,27.4-15,27.4-27.3c0-8.9-8.3-12.8-16.2-12.8c-17.7,0-27.4,16.2-27.4,27.3
		C89.4,52.4,97.8,56.4,105.6,56.4"/>
	<path class="st0" d="M155.1,55.5h13.6L180,0h-13.7l-3.6,17.1c-1.8-0.4-3.6-0.6-5.5-0.6c-13.4,0-25.6,17.4-25.6,29.8
		c0,5.1,3.3,10.1,8.8,10.1c7.9,0,13.3-3.9,15.6-7.6h0.8L155.1,55.5z"/>
	<path class="st0" d="M113,84.4c-10,8.7-23.4,13.1-37.9,12.2c-18.3-1.1-31-15.6-33.6-30.3h0.9c4.1,9.4,14.2,18,26.8,19.4
		c12.3,1.4,27.4-4.3,35.6-12.4l-9.3-7.1l27.5,0.1L117.1,96L113,84.4z"/>
</g>
</svg>
