<svg version="1.1" id="Layer_1" xmlns="http://www.w3.org/2000/svg" xmlns:xlink="http://www.w3.org/1999/xlink" x="0px" y="0px"
	 width="100%" viewBox="0 0 1980 1039" enable-background="new 0 0 1980 1039" xml:space="preserve">
<path fill="#313131" opacity="1.000000" stroke="none" 
	d="
M1981.000000,601.000000 
	C1981.000000,747.323425 1981.000000,893.646912 1981.000000,1039.977783 
	C1321.054443,1039.985107 661.108826,1039.985107 1.081608,1039.985107 
	C1.081608,693.744446 1.081608,347.488892 1.081608,1.116660 
	C660.877686,1.116660 1320.755371,1.116660 1981.000000,1.116660 
	C1981.000000,170.365891 1981.000000,339.732056 1980.611816,509.717102 
	C1966.917236,511.142456 1957.535278,517.151306 1953.597168,530.397766 
	C1952.533936,533.973755 1950.351196,532.678284 1948.108398,531.715149 
	C1930.596558,524.194397 1911.609375,537.707153 1912.959473,556.665710 
	C1913.888672,569.711975 1921.948364,577.484497 1932.935791,582.407715 
	C1940.172119,585.650208 1948.139282,587.220215 1955.566650,590.089355 
	C1964.166016,593.411316 1972.532471,597.336670 1981.000000,601.000000 
M1190.621704,430.087006 
	C1152.616821,446.145660 1132.329346,483.775696 1141.551270,523.914246 
	C1148.739746,555.201599 1168.875366,577.387329 1195.966553,593.512268 
	C1216.377441,605.660950 1238.673584,613.745300 1260.733765,622.194214 
	C1291.572632,634.005310 1321.883545,646.779785 1349.508057,665.187866 
	C1354.930786,668.801514 1356.088013,667.975952 1358.016113,661.778687 
	C1362.016846,648.919983 1365.191406,635.597900 1370.935547,623.527527 
	C1386.733032,590.330566 1403.874756,557.776489 1420.110962,524.784241 
	C1432.338501,499.937683 1438.226685,474.051819 1433.434814,446.011047 
	C1430.300171,427.669342 1422.417236,412.481354 1409.522095,399.422058 
	C1389.523071,379.168488 1364.683228,373.006897 1337.886963,377.879669 
	C1305.566895,383.756958 1285.049561,404.422180 1275.465454,435.738098 
	C1272.867920,444.225800 1272.770386,444.502960 1265.652344,439.505524 
	C1265.243530,439.218597 1264.868164,438.882599 1264.451294,438.608917 
	C1241.540039,423.564117 1217.060059,421.548340 1190.621704,430.087006 
M1791.882568,64.700043 
	C1764.551147,53.689629 1738.928955,56.082798 1716.095459,75.439095 
	C1698.278442,90.542747 1691.807495,111.126976 1690.621826,133.647781 
	C1689.404419,156.770645 1697.105591,177.983627 1705.941406,198.742691 
	C1720.213867,232.274704 1736.119629,265.191650 1742.641479,301.479767 
	C1743.382446,305.602173 1745.650757,305.766785 1748.736816,303.902893 
	C1776.423340,287.180969 1807.174316,278.352997 1837.823853,269.232330 
	C1856.317627,263.728912 1874.968506,258.502350 1891.873657,248.871704 
	C1913.727295,236.422058 1930.640137,219.771286 1936.715210,194.252960 
	C1944.122437,163.138138 1931.096069,133.196747 1902.915894,117.303246 
	C1882.861938,105.992950 1861.451538,106.435120 1840.460938,116.196785 
	C1837.215332,117.706108 1834.088013,119.469406 1830.107178,121.528419 
	C1826.871826,95.922173 1814.020020,77.502090 1791.882568,64.700043 
M1568.782227,771.263428 
	C1559.600830,774.527649 1550.817993,778.524109 1544.090210,785.869385 
	C1540.755981,789.509521 1539.471680,787.325256 1537.523682,784.382141 
	C1533.437988,778.209351 1529.780884,771.407593 1524.467773,766.450623 
	C1497.629761,741.411865 1456.699951,748.869812 1438.162476,776.794495 
	C1425.270996,796.213989 1425.507690,816.946472 1432.172363,838.138916 
	C1436.791626,852.826843 1445.782471,865.183228 1455.086670,877.171997 
	C1474.054321,901.612122 1494.818481,924.770813 1508.155762,953.144287 
	C1509.640991,956.303711 1511.315308,956.639465 1514.144043,953.867004 
	C1528.110107,940.179260 1543.777588,928.697693 1560.253174,918.158325 
	C1578.738770,906.333130 1597.803467,895.064209 1614.734131,881.246948 
	C1635.380371,864.397339 1646.566284,842.350769 1641.312744,814.296387 
	C1635.517578,783.349487 1602.660767,761.211548 1568.782227,771.263428 
M692.176941,181.175446 
	C696.923523,178.791397 701.484558,175.887024 706.449890,174.116699 
	C724.467773,167.692780 742.559143,161.459259 760.742188,155.519470 
	C776.350952,150.420609 791.635376,144.878464 803.395264,132.702682 
	C818.459656,117.105461 821.900330,99.161499 814.737671,81.619217 
	C804.318787,56.102112 778.005188,46.597092 752.979492,58.005508 
	C747.359009,60.567707 746.619324,60.272636 745.319824,54.344826 
	C739.374451,27.224257 707.788940,11.860128 682.857056,24.017990 
	C661.074463,34.640144 651.833557,56.799461 656.294373,81.688148 
	C658.698608,95.102272 664.115906,108.109108 669.240173,120.871544 
	C676.750183,139.575851 685.036011,157.955307 689.160461,177.835526 
	C689.414246,179.059021 690.702759,180.067856 692.176941,181.175446 
M1195.660645,239.868179 
	C1190.047363,230.738617 1181.842773,224.936844 1171.603760,222.442856 
	C1156.071167,218.659470 1143.347900,224.681870 1132.070435,235.879318 
	C1130.435547,233.255905 1129.242065,231.314789 1128.023682,229.389420 
	C1119.161377,215.384644 1101.741089,209.066635 1084.670044,213.659943 
	C1069.894043,217.635727 1058.163208,232.761795 1057.190063,248.266098 
	C1055.968384,267.729187 1065.074707,282.833893 1076.824707,296.966187 
	C1089.687378,312.436981 1103.731201,327.020111 1113.282104,344.990967 
	C1115.399170,348.974457 1117.042847,348.102936 1120.005615,345.591827 
	C1129.888306,337.216095 1139.926147,329.000305 1150.232544,321.154236 
	C1161.075928,312.899323 1172.926636,305.871246 1183.214600,297.004486 
	C1201.684937,281.085449 1205.975708,259.903564 1195.660645,239.868179 
M1090.530518,757.867737 
	C1083.402466,739.554443 1069.223022,730.147644 1050.428589,731.263489 
	C1034.070435,732.234680 1019.588684,744.634216 1015.659241,760.383179 
	C1012.419128,773.369385 1013.582703,785.831299 1018.647095,798.049805 
	C1028.197632,821.091919 1042.250854,842.175476 1048.450073,866.685608 
	C1049.370361,870.324463 1051.633789,868.853882 1053.887939,867.766052 
	C1065.701538,862.065125 1077.433594,856.164001 1089.457275,850.938232 
	C1101.508911,845.700317 1114.145996,841.761475 1126.020874,836.177856 
	C1138.620850,830.253296 1148.479614,820.721619 1152.750732,807.181396 
	C1157.765869,791.281982 1153.775879,777.100586 1141.145020,765.970032 
	C1128.875732,755.157959 1113.217896,753.614136 1098.274292,761.142822 
	C1096.562866,762.005188 1094.802002,762.769348 1092.709229,763.744202 
	C1091.931030,761.629395 1091.367065,760.097290 1090.530518,757.867737 
M939.152222,364.579407 
	C939.580750,363.143860 940.074158,361.724152 940.428101,360.270447 
	C945.375122,339.953033 934.657959,320.909698 914.955688,314.749664 
	C906.819702,312.205963 898.916382,312.641724 891.039917,315.728638 
	C887.729065,317.026184 884.901184,317.273590 884.032715,312.543610 
	C880.371399,292.602814 866.829346,279.903107 844.904968,280.650970 
	C831.025513,281.124451 816.276123,292.661682 811.477966,305.229675 
	C805.429138,321.073792 807.446777,336.631226 812.320679,352.169128 
	C818.388489,371.513153 825.785156,390.490234 828.125122,410.840393 
	C828.549805,414.534119 830.621826,414.865967 833.841675,413.761230 
	C844.344238,410.157867 854.813599,406.382477 865.500854,403.411255 
	C879.424561,399.540283 893.757751,397.052734 907.520813,392.718842 
	C921.660583,388.266296 932.463074,379.058258 939.152222,364.579407 
M793.107605,806.880249 
	C790.489380,807.278687 787.783264,807.379822 785.267090,808.123474 
	C768.305054,813.136536 758.301086,829.577698 756.986023,846.692200 
	C755.815979,861.919983 760.805969,875.820679 765.003357,890.035034 
	C769.506775,905.285095 773.229431,920.774414 776.940369,936.243835 
	C777.889832,940.201904 779.228455,940.483948 782.770447,939.355408 
	C794.950134,935.474670 807.201721,931.798218 819.516052,928.367371 
	C832.483887,924.754395 845.862183,922.375122 858.498169,917.875793 
	C872.213440,912.992126 882.931641,903.991577 888.345337,889.621582 
	C896.384888,868.281860 882.021057,841.007874 858.125977,839.550964 
	C852.148621,839.186462 845.906616,840.482727 840.025146,841.964172 
	C833.874390,843.513489 833.450134,843.642761 832.902649,837.496094 
	C832.742188,835.694092 832.439453,833.851685 831.851501,832.148804 
	C825.796204,814.611816 813.148743,806.189697 793.107605,806.880249 
M1682.369385,537.124634 
	C1682.554688,547.726624 1687.098145,557.106689 1690.708618,566.740723 
	C1696.651611,582.598267 1702.915039,598.342468 1708.499756,614.324463 
	C1710.765503,620.808167 1711.451294,621.485474 1717.778198,618.619995 
	C1725.640137,615.059387 1733.564087,611.559692 1741.686768,608.667114 
	C1756.877075,603.257629 1772.439331,598.843262 1787.453857,593.004333 
	C1801.426392,587.570618 1814.909790,571.762329 1813.926270,553.094177 
	C1813.122681,537.839600 1803.257080,524.283691 1788.601318,520.219604 
	C1779.721558,517.757263 1770.777832,518.141479 1762.319214,522.305420 
	C1758.334229,524.267090 1756.428589,523.227722 1755.063232,518.927612 
	C1753.778320,514.881165 1751.698120,510.981873 1749.399292,507.380676 
	C1738.307861,490.005737 1711.062256,486.798431 1695.886597,500.676483 
	C1685.319092,510.340363 1681.788208,522.441101 1682.369385,537.124634 
M577.145874,647.437744 
	C583.072266,662.605774 590.496277,677.238037 593.382751,693.492310 
	C593.913513,696.480957 596.059448,696.494568 598.359070,695.204163 
	C615.379700,685.652649 634.152161,680.912109 652.621094,675.283081 
	C667.903564,670.625183 682.546997,664.766357 691.740051,650.411621 
	C702.287231,633.942566 699.906677,609.542725 679.223633,598.151062 
	C668.696411,592.352966 657.165039,592.129211 646.002258,597.383789 
	C642.445312,599.058105 640.415405,598.320618 639.159729,594.564941 
	C638.215820,591.741821 637.001343,588.983093 635.650635,586.326233 
	C627.232544,569.767883 610.735840,563.516113 593.546631,568.453003 
	C577.070740,573.185059 567.423035,587.283630 566.129944,605.146790 
	C565.029114,620.354126 571.324463,633.377075 577.145874,647.437744 
M363.972046,232.521774 
	C353.022766,222.601654 331.922485,223.035522 319.903320,232.368484 
	C306.426147,242.833649 302.699158,256.950989 304.925140,272.316650 
	C306.538574,283.453888 311.348602,294.170776 315.109894,304.943604 
	C320.196838,319.513428 325.796173,333.904724 330.853790,348.484253 
	C332.570740,353.433594 333.673279,354.367188 338.661591,352.158325 
	C343.980164,349.803223 349.110382,346.931213 354.582397,345.033173 
	C366.204681,341.001892 378.008514,337.496613 389.713745,333.701141 
	C404.687286,328.845978 419.200256,323.558624 428.895874,309.677979 
	C437.004730,298.069092 438.308105,281.270874 430.788818,269.168915 
	C420.882294,253.224762 400.931580,247.389145 384.052277,255.498383 
	C379.523895,257.673950 378.067291,257.090454 376.994049,252.322739 
	C375.193726,244.325012 370.586243,238.187332 363.972046,232.521774 
M1285.392822,913.321899 
	C1285.694702,912.735413 1286.061523,912.172913 1286.289185,911.558899 
	C1292.298584,895.356140 1298.139893,879.088989 1304.343506,862.961060 
	C1308.663208,851.730957 1313.029541,840.686523 1311.935791,828.205566 
	C1310.497192,811.790649 1298.363892,798.031738 1283.172729,796.339111 
	C1265.855591,794.409607 1251.530151,803.653320 1246.493408,820.390198 
	C1245.224487,824.606567 1243.503540,825.246643 1239.697632,823.455444 
	C1230.088379,818.933105 1220.040649,818.591431 1210.784302,823.637695 
	C1191.390625,834.210449 1187.285400,858.291809 1201.167114,875.442810 
	C1210.007568,886.365112 1222.125000,891.618469 1234.916260,895.671570 
	C1250.621216,900.648071 1266.610474,904.789734 1281.118408,912.965149 
	C1282.170532,913.558044 1283.610962,913.461609 1285.392822,913.321899 
M1617.163086,365.579163 
	C1606.310913,363.336609 1596.767944,365.965485 1588.389038,373.176758 
	C1582.568115,378.186615 1582.525391,378.136993 1577.631958,372.370605 
	C1562.283936,354.284851 1531.988403,358.847168 1523.154785,380.865112 
	C1516.735718,396.864746 1521.053955,411.558105 1531.489746,424.218781 
	C1545.323608,441.001678 1559.946533,457.136017 1574.386719,473.410492 
	C1575.011230,474.114502 1577.944458,474.042114 1578.546997,473.305145 
	C1589.638672,459.737030 1604.127563,450.106201 1617.412109,439.052521 
	C1624.505249,433.150726 1631.671631,426.716248 1636.763672,419.148590 
	C1650.994751,397.998322 1641.686523,371.747253 1617.163086,365.579163 
M440.442749,526.069702 
	C445.321381,531.963623 450.354187,537.738159 455.037598,543.783264 
	C460.261017,550.525452 459.723236,550.186890 466.099640,544.469421 
	C478.100220,533.708923 490.872833,523.806091 502.810577,512.980103 
	C509.771576,506.667389 516.868835,499.987244 521.906860,492.182739 
	C531.548462,477.246735 528.325134,458.382263 515.792786,447.694550 
	C503.367706,437.098267 485.645081,437.203003 472.676239,447.949493 
	C466.591461,452.991547 466.757080,452.836151 461.250610,446.971069 
	C452.919617,438.097473 442.752563,434.186035 430.570618,436.897003 
	C418.831940,439.509399 410.290466,446.089142 406.453491,457.731598 
	C401.339142,473.249908 405.548035,487.168915 415.473938,499.255493 
	C423.060120,508.493011 431.749817,516.824280 440.442749,526.069702 
M198.079514,628.465332 
	C181.158218,619.569702 166.638763,623.563782 153.829620,637.450378 
	C151.428360,634.698792 149.463425,632.289795 147.334839,630.035278 
	C137.896164,620.038269 122.440849,617.266602 110.152153,623.306580 
	C95.721130,630.399414 88.789085,645.389160 92.137955,661.780029 
	C94.796776,674.793396 102.609367,684.586243 111.537209,693.748413 
	C123.257469,705.776367 135.647034,717.227051 144.593033,731.664551 
	C146.507797,734.754700 147.772491,734.260315 150.205139,731.840149 
	C157.855972,724.228455 165.716385,716.806641 173.804352,709.660645 
	C183.517914,701.078369 194.388092,693.652039 203.262390,684.305664 
	C220.179504,666.488647 217.609329,641.025146 198.079514,628.465332 
M184.201553,190.338531 
	C188.833862,196.322250 193.466171,202.305969 198.000290,208.162857 
	C198.772186,207.894836 199.202927,207.882706 199.376938,207.665192 
	C210.642212,193.584152 225.255981,183.311020 239.289307,172.350098 
	C250.404205,163.668671 260.686401,154.314651 264.213837,139.681686 
	C267.815155,124.742249 261.779724,109.608322 248.890198,102.324928 
	C235.394135,94.698799 219.337234,96.740685 208.562683,108.018669 
	C205.162613,111.577606 203.744965,110.901329 201.150864,107.381401 
	C192.122253,95.130638 177.280426,91.083244 162.846298,96.550117 
	C149.802948,101.490234 141.691589,114.858452 142.477142,129.477417 
	C143.095566,140.986359 147.498611,150.852982 155.073608,159.240219 
	C164.433975,169.604294 174.166458,179.632278 184.201553,190.338531 
M1543.165039,679.798706 
	C1547.737427,670.923157 1552.391724,662.088501 1556.859985,653.160828 
	C1561.605225,643.679810 1562.652832,633.429749 1559.820190,623.497314 
	C1556.618408,612.270081 1548.200073,605.474731 1536.463013,604.665649 
	C1524.937744,603.871155 1515.500610,608.429871 1510.501831,619.495972 
	C1508.257446,624.464417 1505.749146,624.908813 1500.842041,622.895020 
	C1487.023926,617.224426 1473.199829,622.349121 1466.727905,634.878479 
	C1459.312744,649.233826 1465.741943,668.404602 1481.238892,676.100891 
	C1497.598267,684.225525 1514.337158,691.584167 1530.863647,699.375916 
	C1534.049927,700.878174 1535.503174,699.499451 1536.553711,696.770813 
	C1538.646118,691.336609 1540.748535,685.906250 1543.165039,679.798706 
M348.029053,726.282715 
	C349.507996,736.601685 354.470795,745.203979 363.563385,749.928528 
	C380.359344,758.655701 397.702698,766.330139 414.828735,774.420410 
	C417.622528,775.740234 419.418427,774.932007 420.735413,771.995667 
	C426.512207,759.115784 432.668518,746.402161 438.242767,733.437134 
	C441.044647,726.920288 444.015350,720.141663 444.922791,713.220886 
	C446.390564,702.026917 443.689941,691.358948 433.779510,684.447754 
	C418.567780,673.839661 399.950470,680.855408 393.915100,695.311462 
	C392.173523,699.483032 389.972198,700.299561 385.800079,698.347961 
	C378.799713,695.073425 371.677490,694.146973 364.168579,697.731873 
	C352.365265,703.367004 346.972870,712.384766 348.029053,726.282715 
M108.554886,953.192261 
	C113.600327,942.706299 118.370697,932.076233 123.768341,921.774780 
	C129.209366,911.390564 133.179077,900.802795 131.801727,888.848450 
	C130.564804,878.112915 124.892464,870.285461 114.858490,866.684998 
	C105.538513,863.340820 95.959846,863.580933 88.229332,870.973755 
	C85.078346,873.987000 82.693428,877.904358 80.400017,881.677856 
	C78.657089,884.545532 77.280022,885.899658 73.750732,883.998840 
	C62.889885,878.149292 50.667706,880.174500 42.183746,888.859436 
	C34.021362,897.215271 32.590019,910.183899 37.822815,920.828125 
	C43.254501,931.876953 52.993786,937.189819 63.446552,941.875244 
	C75.270699,947.175476 87.192787,952.273804 98.863045,957.894348 
	C105.841103,961.255005 105.895988,961.531921 108.554886,953.192261 
M142.142426,426.249084 
	C145.183762,427.967133 148.248093,429.645966 151.260498,431.413300 
	C154.889160,433.542114 157.132431,432.966827 158.982956,428.792755 
	C164.300873,416.797394 170.001175,404.971283 175.574707,393.089661 
	C179.755157,384.177765 183.664413,375.352203 183.064117,365.001282 
	C182.263641,351.198547 173.994705,340.776520 160.345245,337.731812 
	C149.979294,335.419495 137.079544,342.281738 131.807144,353.443939 
	C129.814514,357.662567 127.889900,358.214081 123.759071,356.236603 
	C112.167389,350.687561 99.395706,353.763031 91.827545,363.443481 
	C80.708931,377.665344 85.843552,400.183014 102.770782,408.661469 
	C115.386658,414.980469 128.553558,420.199371 142.142426,426.249084 
M866.806763,585.918274 
	C851.838318,585.141541 843.289429,590.403503 838.144592,604.042847 
	C836.823486,607.545044 835.573364,608.320862 832.001587,606.709534 
	C821.770935,602.094360 810.223511,604.944214 803.022949,613.417847 
	C795.647888,622.096802 794.808533,634.729797 800.905334,644.116760 
	C806.684265,653.014221 815.435242,657.403564 825.103394,660.701782 
	C838.158264,665.155457 851.138428,669.839417 864.053955,674.682495 
	C867.521362,675.982727 867.884521,674.205322 868.746765,671.728943 
	C871.860291,662.786865 875.202759,653.924683 878.438599,645.024902 
	C881.615662,636.286682 885.729004,627.752075 887.720825,618.749634 
	C891.306213,602.544495 883.279175,590.349976 866.806763,585.918274 
M539.896118,303.606079 
	C545.806091,311.623444 554.216919,315.668488 563.354004,318.806244 
	C576.386841,323.281921 589.328674,328.028229 602.249390,332.820709 
	C605.422485,333.997650 605.806274,332.237762 606.611328,329.962830 
	C609.879089,320.728821 613.367249,311.573059 616.707397,302.364288 
	C619.819092,293.785400 623.443237,285.330597 625.723816,276.531403 
	C627.583679,269.355286 626.662170,261.783783 622.364319,255.417236 
	C616.357788,246.519669 607.869019,242.545151 596.990051,244.138748 
	C586.538269,245.669769 579.745605,251.599182 576.414734,261.400940 
	C575.048584,265.421021 573.693787,266.720123 569.381470,264.528473 
	C562.746460,261.156250 555.466980,261.710602 549.107666,264.981476 
	C534.732849,272.375061 530.721069,289.215179 539.896118,303.606079 
z"/>
<path fill="#9ccb3c" opacity="1.000000" stroke="none" 
	d="
M1981.000000,600.531372 
	C1972.532471,597.336670 1964.166016,593.411316 1955.566650,590.089355 
	C1948.139282,587.220215 1940.172119,585.650208 1932.935791,582.407715 
	C1921.948364,577.484497 1913.888672,569.711975 1912.959473,556.665710 
	C1911.609375,537.707153 1930.596558,524.194397 1948.108398,531.715149 
	C1950.351196,532.678284 1952.533936,533.973755 1953.597168,530.397766 
	C1957.535278,517.151306 1966.917236,511.142456 1980.611816,510.167999 
	C1981.000000,540.020874 1981.000000,570.041809 1981.000000,600.531372 
z"/>
<path fill="#5A3666" opacity="1.000000" stroke="none" 
	d="
M1190.982910,429.951630 
	C1217.060059,421.548340 1241.540039,423.564117 1264.451294,438.608917 
	C1264.868164,438.882599 1265.243530,439.218597 1265.652344,439.505524 
	C1272.770386,444.502960 1272.867920,444.225800 1275.465454,435.738098 
	C1285.049561,404.422180 1305.566895,383.756958 1337.886963,377.879669 
	C1364.683228,373.006897 1389.523071,379.168488 1409.522095,399.422058 
	C1422.417236,412.481354 1430.300171,427.669342 1433.434814,446.011047 
	C1438.226685,474.051819 1432.338501,499.937683 1420.110962,524.784241 
	C1403.874756,557.776489 1386.733032,590.330566 1370.935547,623.527527 
	C1365.191406,635.597900 1362.016846,648.919983 1358.016113,661.778687 
	C1356.088013,667.975952 1354.930786,668.801514 1349.508057,665.187866 
	C1321.883545,646.779785 1291.572632,634.005310 1260.733765,622.194214 
	C1238.673584,613.745300 1216.377441,605.660950 1195.966553,593.512268 
	C1168.875366,577.387329 1148.739746,555.201599 1141.551270,523.914246 
	C1132.329346,483.775696 1152.616821,446.145660 1190.982910,429.951630 
z"/>
<path fill="#7B3B94" opacity="1.000000" stroke="none" 
	d="
M1792.229980,64.831314 
	C1814.020020,77.502090 1826.871826,95.922173 1830.107178,121.528419 
	C1834.088013,119.469406 1837.215332,117.706108 1840.460938,116.196785 
	C1861.451538,106.435120 1882.861938,105.992950 1902.915894,117.303246 
	C1931.096069,133.196747 1944.122437,163.138138 1936.715210,194.252960 
	C1930.640137,219.771286 1913.727295,236.422058 1891.873657,248.871704 
	C1874.968506,258.502350 1856.317627,263.728912 1837.823853,269.232330 
	C1807.174316,278.352997 1776.423340,287.180969 1748.736816,303.902893 
	C1745.650757,305.766785 1743.382446,305.602173 1742.641479,301.479767 
	C1736.119629,265.191650 1720.213867,232.274704 1705.941406,198.742691 
	C1697.105591,177.983627 1689.404419,156.770645 1690.621826,133.647781 
	C1691.807495,111.126976 1698.278442,90.542747 1716.095459,75.439095 
	C1738.928955,56.082798 1764.551147,53.689629 1792.229980,64.831314 
z"/>
<path fill="#603770" opacity="1.000000" stroke="none" 
	d="
M1569.145508,771.106262 
	C1602.660767,761.211548 1635.517578,783.349487 1641.312744,814.296387 
	C1646.566284,842.350769 1635.380371,864.397339 1614.734131,881.246948 
	C1597.803467,895.064209 1578.738770,906.333130 1560.253174,918.158325 
	C1543.777588,928.697693 1528.110107,940.179260 1514.144043,953.867004 
	C1511.315308,956.639465 1509.640991,956.303711 1508.155762,953.144287 
	C1494.818481,924.770813 1474.054321,901.612122 1455.086670,877.171997 
	C1445.782471,865.183228 1436.791626,852.826843 1432.172363,838.138916 
	C1425.507690,816.946472 1425.270996,796.213989 1438.162476,776.794495 
	C1456.699951,748.869812 1497.629761,741.411865 1524.467773,766.450623 
	C1529.780884,771.407593 1533.437988,778.209351 1537.523682,784.382141 
	C1539.471680,787.325256 1540.755981,789.509521 1544.090210,785.869385 
	C1550.817993,778.524109 1559.600830,774.527649 1569.145508,771.106262 
z"/>
<path fill="#683A7A" opacity="1.000000" stroke="none" 
	d="
M691.843445,181.175995 
	C690.702759,180.067856 689.414246,179.059021 689.160461,177.835526 
	C685.036011,157.955307 676.750183,139.575851 669.240173,120.871544 
	C664.115906,108.109108 658.698608,95.102272 656.294373,81.688148 
	C651.833557,56.799461 661.074463,34.640144 682.857056,24.017990 
	C707.788940,11.860128 739.374451,27.224257 745.319824,54.344826 
	C746.619324,60.272636 747.359009,60.567707 752.979492,58.005508 
	C778.005188,46.597092 804.318787,56.102112 814.737671,81.619217 
	C821.900330,99.161499 818.459656,117.105461 803.395264,132.702682 
	C791.635376,144.878464 776.350952,150.420609 760.742188,155.519470 
	C742.559143,161.459259 724.467773,167.692780 706.449890,174.116699 
	C701.484558,175.887024 696.923523,178.791397 691.843445,181.175995 
z"/>
<path fill="#607631" opacity="1.000000" stroke="none" 
	d="
M1195.836182,240.187119 
	C1205.975708,259.903564 1201.684937,281.085449 1183.214600,297.004486 
	C1172.926636,305.871246 1161.075928,312.899323 1150.232544,321.154236 
	C1139.926147,329.000305 1129.888306,337.216095 1120.005615,345.591827 
	C1117.042847,348.102936 1115.399170,348.974457 1113.282104,344.990967 
	C1103.731201,327.020111 1089.687378,312.436981 1076.824707,296.966187 
	C1065.074707,282.833893 1055.968384,267.729187 1057.190063,248.266098 
	C1058.163208,232.761795 1069.894043,217.635727 1084.670044,213.659943 
	C1101.741089,209.066635 1119.161377,215.384644 1128.023682,229.389420 
	C1129.242065,231.314789 1130.435547,233.255905 1132.070435,235.879318 
	C1143.347900,224.681870 1156.071167,218.659470 1171.603760,222.442856 
	C1181.842773,224.936844 1190.047363,230.738617 1195.836182,240.187119 
z"/>
<path fill="#607631" opacity="1.000000" stroke="none" 
	d="
M1090.666870,758.216431 
	C1091.367065,760.097290 1091.931030,761.629395 1092.709229,763.744202 
	C1094.802002,762.769348 1096.562866,762.005188 1098.274292,761.142822 
	C1113.217896,753.614136 1128.875732,755.157959 1141.145020,765.970032 
	C1153.775879,777.100586 1157.765869,791.281982 1152.750732,807.181396 
	C1148.479614,820.721619 1138.620850,830.253296 1126.020874,836.177856 
	C1114.145996,841.761475 1101.508911,845.700317 1089.457275,850.938232 
	C1077.433594,856.164001 1065.701538,862.065125 1053.887939,867.766052 
	C1051.633789,868.853882 1049.370361,870.324463 1048.450073,866.685608 
	C1042.250854,842.175476 1028.197632,821.091919 1018.647095,798.049805 
	C1013.582703,785.831299 1012.419128,773.369385 1015.659241,760.383179 
	C1019.588684,744.634216 1034.070435,732.234680 1050.428589,731.263489 
	C1069.223022,730.147644 1083.402466,739.554443 1090.666870,758.216431 
z"/>
<path fill="#553561" opacity="1.000000" stroke="none" 
	d="
M939.024048,364.946899 
	C932.463074,379.058258 921.660583,388.266296 907.520813,392.718842 
	C893.757751,397.052734 879.424561,399.540283 865.500854,403.411255 
	C854.813599,406.382477 844.344238,410.157867 833.841675,413.761230 
	C830.621826,414.865967 828.549805,414.534119 828.125122,410.840393 
	C825.785156,390.490234 818.388489,371.513153 812.320679,352.169128 
	C807.446777,336.631226 805.429138,321.073792 811.477966,305.229675 
	C816.276123,292.661682 831.025513,281.124451 844.904968,280.650970 
	C866.829346,279.903107 880.371399,292.602814 884.032715,312.543610 
	C884.901184,317.273590 887.729065,317.026184 891.039917,315.728638 
	C898.916382,312.641724 906.819702,312.205963 914.955688,314.749664 
	C934.657959,320.909698 945.375122,339.953033 940.428101,360.270447 
	C940.074158,361.724152 939.580750,363.143860 939.024048,364.946899 
z"/>
<path fill="#553561" opacity="1.000000" stroke="none" 
	d="
M793.539062,806.855347 
	C813.148743,806.189697 825.796204,814.611816 831.851501,832.148804 
	C832.439453,833.851685 832.742188,835.694092 832.902649,837.496094 
	C833.450134,843.642761 833.874390,843.513489 840.025146,841.964172 
	C845.906616,840.482727 852.148621,839.186462 858.125977,839.550964 
	C882.021057,841.007874 896.384888,868.281860 888.345337,889.621582 
	C882.931641,903.991577 872.213440,912.992126 858.498169,917.875793 
	C845.862183,922.375122 832.483887,924.754395 819.516052,928.367371 
	C807.201721,931.798218 794.950134,935.474670 782.770447,939.355408 
	C779.228455,940.483948 777.889832,940.201904 776.940369,936.243835 
	C773.229431,920.774414 769.506775,905.285095 765.003357,890.035034 
	C760.805969,875.820679 755.815979,861.919983 756.986023,846.692200 
	C758.301086,829.577698 768.305054,813.136536 785.267090,808.123474 
	C787.783264,807.379822 790.489380,807.278687 793.539062,806.855347 
z"/>
<path fill="#51365D" opacity="1.000000" stroke="none" 
	d="
M1682.332520,536.668091 
	C1681.788208,522.441101 1685.319092,510.340363 1695.886597,500.676483 
	C1711.062256,486.798431 1738.307861,490.005737 1749.399292,507.380676 
	C1751.698120,510.981873 1753.778320,514.881165 1755.063232,518.927612 
	C1756.428589,523.227722 1758.334229,524.267090 1762.319214,522.305420 
	C1770.777832,518.141479 1779.721558,517.757263 1788.601318,520.219604 
	C1803.257080,524.283691 1813.122681,537.839600 1813.926270,553.094177 
	C1814.909790,571.762329 1801.426392,587.570618 1787.453857,593.004333 
	C1772.439331,598.843262 1756.877075,603.257629 1741.686768,608.667114 
	C1733.564087,611.559692 1725.640137,615.059387 1717.778198,618.619995 
	C1711.451294,621.485474 1710.765503,620.808167 1708.499756,614.324463 
	C1702.915039,598.342468 1696.651611,582.598267 1690.708618,566.740723 
	C1687.098145,557.106689 1682.554688,547.726624 1682.332520,536.668091 
z"/>
<path fill="#51365D" opacity="1.000000" stroke="none" 
	d="
M577.022339,647.074585 
	C571.324463,633.377075 565.029114,620.354126 566.129944,605.146790 
	C567.423035,587.283630 577.070740,573.185059 593.546631,568.453003 
	C610.735840,563.516113 627.232544,569.767883 635.650635,586.326233 
	C637.001343,588.983093 638.215820,591.741821 639.159729,594.564941 
	C640.415405,598.320618 642.445312,599.058105 646.002258,597.383789 
	C657.165039,592.129211 668.696411,592.352966 679.223633,598.151062 
	C699.906677,609.542725 702.287231,633.942566 691.740051,650.411621 
	C682.546997,664.766357 667.903564,670.625183 652.621094,675.283081 
	C634.152161,680.912109 615.379700,685.652649 598.359070,695.204163 
	C596.059448,696.494568 593.913513,696.480957 593.382751,693.492310 
	C590.496277,677.238037 583.072266,662.605774 577.022339,647.074585 
z"/>
<path fill="#51365D" opacity="1.000000" stroke="none" 
	d="
M364.257690,232.733200 
	C370.586243,238.187332 375.193726,244.325012 376.994049,252.322739 
	C378.067291,257.090454 379.523895,257.673950 384.052277,255.498383 
	C400.931580,247.389145 420.882294,253.224762 430.788818,269.168915 
	C438.308105,281.270874 437.004730,298.069092 428.895874,309.677979 
	C419.200256,323.558624 404.687286,328.845978 389.713745,333.701141 
	C378.008514,337.496613 366.204681,341.001892 354.582397,345.033173 
	C349.110382,346.931213 343.980164,349.803223 338.661591,352.158325 
	C333.673279,354.367188 332.570740,353.433594 330.853790,348.484253 
	C325.796173,333.904724 320.196838,319.513428 315.109894,304.943604 
	C311.348602,294.170776 306.538574,283.453888 304.925140,272.316650 
	C302.699158,256.950989 306.426147,242.833649 319.903320,232.368484 
	C331.922485,223.035522 353.022766,222.601654 364.257690,232.733200 
z"/>
<path fill="#9ccb3c" opacity="1.000000" stroke="none" 
	d="
M1285.131836,913.503784 
	C1283.610962,913.461609 1282.170532,913.558044 1281.118408,912.965149 
	C1266.610474,904.789734 1250.621216,900.648071 1234.916260,895.671570 
	C1222.125000,891.618469 1210.007568,886.365112 1201.167114,875.442810 
	C1187.285400,858.291809 1191.390625,834.210449 1210.784302,823.637695 
	C1220.040649,818.591431 1230.088379,818.933105 1239.697632,823.455444 
	C1243.503540,825.246643 1245.224487,824.606567 1246.493408,820.390198 
	C1251.530151,803.653320 1265.855591,794.409607 1283.172729,796.339111 
	C1298.363892,798.031738 1310.497192,811.790649 1311.935791,828.205566 
	C1313.029541,840.686523 1308.663208,851.730957 1304.343506,862.961060 
	C1298.139893,879.088989 1292.298584,895.356140 1286.289185,911.558899 
	C1286.061523,912.172913 1285.694702,912.735413 1285.131836,913.503784 
z"/>
<path fill="#9ccb3c" opacity="1.000000" stroke="none" 
	d="
M1617.553467,365.670654 
	C1641.686523,371.747253 1650.994751,397.998322 1636.763672,419.148590 
	C1631.671631,426.716248 1624.505249,433.150726 1617.412109,439.052521 
	C1604.127563,450.106201 1589.638672,459.737030 1578.546997,473.305145 
	C1577.944458,474.042114 1575.011230,474.114502 1574.386719,473.410492 
	C1559.946533,457.136017 1545.323608,441.001678 1531.489746,424.218781 
	C1521.053955,411.558105 1516.735718,396.864746 1523.154785,380.865112 
	C1531.988403,358.847168 1562.283936,354.284851 1577.631958,372.370605 
	C1582.525391,378.136993 1582.568115,378.186615 1588.389038,373.176758 
	C1596.767944,365.965485 1606.310913,363.336609 1617.553467,365.670654 
z"/>
<path fill="#9ccb3c" opacity="1.000000" stroke="none" 
	d="
M440.195709,525.814209 
	C431.749817,516.824280 423.060120,508.493011 415.473938,499.255493 
	C405.548035,487.168915 401.339142,473.249908 406.453491,457.731598 
	C410.290466,446.089142 418.831940,439.509399 430.570618,436.897003 
	C442.752563,434.186035 452.919617,438.097473 461.250610,446.971069 
	C466.757080,452.836151 466.591461,452.991547 472.676239,447.949493 
	C485.645081,437.203003 503.367706,437.098267 515.792786,447.694550 
	C528.325134,458.382263 531.548462,477.246735 521.906860,492.182739 
	C516.868835,499.987244 509.771576,506.667389 502.810577,512.980103 
	C490.872833,523.806091 478.100220,533.708923 466.099640,544.469421 
	C459.723236,550.186890 460.261017,550.525452 455.037598,543.783264 
	C450.354187,537.738159 445.321381,531.963623 440.195709,525.814209 
z"/>
<path fill="#9ccb3c" opacity="1.000000" stroke="none" 
	d="
M198.394745,628.647217 
	C217.609329,641.025146 220.179504,666.488647 203.262390,684.305664 
	C194.388092,693.652039 183.517914,701.078369 173.804352,709.660645 
	C165.716385,716.806641 157.855972,724.228455 150.205139,731.840149 
	C147.772491,734.260315 146.507797,734.754700 144.593033,731.664551 
	C135.647034,717.227051 123.257469,705.776367 111.537209,693.748413 
	C102.609367,684.586243 94.796776,674.793396 92.137955,661.780029 
	C88.789085,645.389160 95.721130,630.399414 110.152153,623.306580 
	C122.440849,617.266602 137.896164,620.038269 147.334839,630.035278 
	C149.463425,632.289795 151.428360,634.698792 153.829620,637.450378 
	C166.638763,623.563782 181.158218,619.569702 198.394745,628.647217 
z"/>
<path fill="#9ccb3c" opacity="1.000000" stroke="none" 
	d="
M183.969864,190.072006 
	C174.166458,179.632278 164.433975,169.604294 155.073608,159.240219 
	C147.498611,150.852982 143.095566,140.986359 142.477142,129.477417 
	C141.691589,114.858452 149.802948,101.490234 162.846298,96.550117 
	C177.280426,91.083244 192.122253,95.130638 201.150864,107.381401 
	C203.744965,110.901329 205.162613,111.577606 208.562683,108.018669 
	C219.337234,96.740685 235.394135,94.698799 248.890198,102.324928 
	C261.779724,109.608322 267.815155,124.742249 264.213837,139.681686 
	C260.686401,154.314651 250.404205,163.668671 239.289307,172.350098 
	C225.255981,183.311020 210.642212,193.584152 199.376938,207.665192 
	C199.202927,207.882706 198.772186,207.894836 198.000290,208.162857 
	C193.466171,202.305969 188.833862,196.322250 183.969864,190.072006 
z"/>
<path fill="#5A3766" opacity="1.000000" stroke="none" 
	d="
M1543.005859,680.136475 
	C1540.748535,685.906250 1538.646118,691.336609 1536.553711,696.770813 
	C1535.503174,699.499451 1534.049927,700.878174 1530.863647,699.375916 
	C1514.337158,691.584167 1497.598267,684.225525 1481.238892,676.100891 
	C1465.741943,668.404602 1459.312744,649.233826 1466.727905,634.878479 
	C1473.199829,622.349121 1487.023926,617.224426 1500.842041,622.895020 
	C1505.749146,624.908813 1508.257446,624.464417 1510.501831,619.495972 
	C1515.500610,608.429871 1524.937744,603.871155 1536.463013,604.665649 
	C1548.200073,605.474731 1556.618408,612.270081 1559.820190,623.497314 
	C1562.652832,633.429749 1561.605225,643.679810 1556.859985,653.160828 
	C1552.391724,662.088501 1547.737427,670.923157 1543.005859,680.136475 
z"/>
<path fill="#5A3766" opacity="1.000000" stroke="none" 
	d="
M348.017090,725.815613 
	C346.972870,712.384766 352.365265,703.367004 364.168579,697.731873 
	C371.677490,694.146973 378.799713,695.073425 385.800079,698.347961 
	C389.972198,700.299561 392.173523,699.483032 393.915100,695.311462 
	C399.950470,680.855408 418.567780,673.839661 433.779510,684.447754 
	C443.689941,691.358948 446.390564,702.026917 444.922791,713.220886 
	C444.015350,720.141663 441.044647,726.920288 438.242767,733.437134 
	C432.668518,746.402161 426.512207,759.115784 420.735413,771.995667 
	C419.418427,774.932007 417.622528,775.740234 414.828735,774.420410 
	C397.702698,766.330139 380.359344,758.655701 363.563385,749.928528 
	C354.470795,745.203979 349.507996,736.601685 348.017090,725.815613 
z"/>
<path fill="#5A3766" opacity="1.000000" stroke="none" 
	d="
M108.421967,953.557861 
	C105.895988,961.531921 105.841103,961.255005 98.863045,957.894348 
	C87.192787,952.273804 75.270699,947.175476 63.446552,941.875244 
	C52.993786,937.189819 43.254501,931.876953 37.822815,920.828125 
	C32.590019,910.183899 34.021362,897.215271 42.183746,888.859436 
	C50.667706,880.174500 62.889885,878.149292 73.750732,883.998840 
	C77.280022,885.899658 78.657089,884.545532 80.400017,881.677856 
	C82.693428,877.904358 85.078346,873.987000 88.229332,870.973755 
	C95.959846,863.580933 105.538513,863.340820 114.858490,866.684998 
	C124.892464,870.285461 130.564804,878.112915 131.801727,888.848450 
	C133.179077,900.802795 129.209366,911.390564 123.768341,921.774780 
	C118.370697,932.076233 113.600327,942.706299 108.421967,953.557861 
z"/>
<path fill="#5A3766" opacity="1.000000" stroke="none" 
	d="
M141.808746,426.078613 
	C128.553558,420.199371 115.386658,414.980469 102.770782,408.661469 
	C85.843552,400.183014 80.708931,377.665344 91.827545,363.443481 
	C99.395706,353.763031 112.167389,350.687561 123.759071,356.236603 
	C127.889900,358.214081 129.814514,357.662567 131.807144,353.443939 
	C137.079544,342.281738 149.979294,335.419495 160.345245,337.731812 
	C173.994705,340.776520 182.263641,351.198547 183.064117,365.001282 
	C183.664413,375.352203 179.755157,384.177765 175.574707,393.089661 
	C170.001175,404.971283 164.300873,416.797394 158.982956,428.792755 
	C157.132431,432.966827 154.889160,433.542114 151.260498,431.413300 
	C148.248093,429.645966 145.183762,427.967133 141.808746,426.078613 
z"/>
<path fill="#9ccb3c" opacity="1.000000" stroke="none" 
	d="
M867.207642,585.980591 
	C883.279175,590.349976 891.306213,602.544495 887.720825,618.749634 
	C885.729004,627.752075 881.615662,636.286682 878.438599,645.024902 
	C875.202759,653.924683 871.860291,662.786865 868.746765,671.728943 
	C867.884521,674.205322 867.521362,675.982727 864.053955,674.682495 
	C851.138428,669.839417 838.158264,665.155457 825.103394,660.701782 
	C815.435242,657.403564 806.684265,653.014221 800.905334,644.116760 
	C794.808533,634.729797 795.647888,622.096802 803.022949,613.417847 
	C810.223511,604.944214 821.770935,602.094360 832.001587,606.709534 
	C835.573364,608.320862 836.823486,607.545044 838.144592,604.042847 
	C843.289429,590.403503 851.838318,585.141541 867.207642,585.980591 
z"/>
<path fill="#9ccb3c" opacity="1.000000" stroke="none" 
	d="
M539.679688,303.320923 
	C530.721069,289.215179 534.732849,272.375061 549.107666,264.981476 
	C555.466980,261.710602 562.746460,261.156250 569.381470,264.528473 
	C573.693787,266.720123 575.048584,265.421021 576.414734,261.400940 
	C579.745605,251.599182 586.538269,245.669769 596.990051,244.138748 
	C607.869019,242.545151 616.357788,246.519669 622.364319,255.417236 
	C626.662170,261.783783 627.583679,269.355286 625.723816,276.531403 
	C623.443237,285.330597 619.819092,293.785400 616.707397,302.364288 
	C613.367249,311.573059 609.879089,320.728821 606.611328,329.962830 
	C605.806274,332.237762 605.422485,333.997650 602.249390,332.820709 
	C589.328674,328.028229 576.386841,323.281921 563.354004,318.806244 
	C554.216919,315.668488 545.806091,311.623444 539.679688,303.320923 
z"/>
</svg>