<?xml version="1.0" encoding="utf-8"?>
<!-- Generator: Adobe Illustrator 18.0.0, SVG Export Plug-In . SVG Version: 6.00 Build 0)  -->
<!DOCTYPE svg PUBLIC "-//W3C//DTD SVG 1.1//EN" "http://www.w3.org/Graphics/SVG/1.1/DTD/svg11.dtd">
<svg version="1.1" id="Layer_1" xmlns="http://www.w3.org/2000/svg" xmlns:xlink="http://www.w3.org/1999/xlink" x="0px" y="0px"
	 viewBox="0 0 512 512" enable-background="new 0 0 512 512" xml:space="preserve">
<g id="Base" display="none">
	<rect display="inline" fill="#00FF00" width="512" height="512"/>
</g>
<g id="Layer_1_1_">
	<g>
		<g>
			<path fill="#444444" d="M479.9,87.2v336.4c0,30.2-25,56.2-56.2,56.2h-84.4V318.5h59.4v-69.8h-59.4v-36.5
				c0-9.4,3.1-15.6,14.6-15.6h44.8v-79.2h-50c-51,0-90.6,42.7-90.6,96.9v34.4h-54.2v69.8h54.2v161.4H88.3c-31.2,0-56.2-26-56.2-56.2
				V87.2C32.1,57,57.1,32,88.3,32h335.4C454.9,32,479.9,57,479.9,87.2z"/>
		</g>
		<g>
			<path fill="#FFFFFF" d="M479.9,87.2v336.4c0,30.2-25,56.2-56.2,56.2h-84.4V318.5h59.4v-69.8h-59.4v-36.5
				c0-9.4,3.1-15.6,14.6-15.6h44.8v-79.2h-50c-51,0-90.6,42.7-90.6,96.9v34.4h-54.2v69.8h54.2v161.4H88.3c-31.2,0-56.2-26-56.2-56.2
				V87.2C32.1,57,57.1,32,88.3,32h335.4C454.9,32,479.9,57,479.9,87.2z"/>
		</g>
	</g>
</g>
<g id="gUIDES">
</g>
</svg>
