<?xml version="1.0" standalone="no"?>

<svg viewBox="0 0 112 29" style="background-color:#ffffff00" version="1.1" xmlns="http://www.w3.org/2000/svg" xmlns:xlink="http://www.w3.org/1999/xlink" xml:space="preserve" x="0px" y="0px" width="100%" height="100%">
	<g>
		<path d="M 29.2 20.7 L 29.2 9 L 30.7 9 L 37.7 18.4 L 37.7 9 L 39.1 9 L 39.1 20.7 L 37.6 20.7 L 30.6 11.2 L 30.6 20.7 L 29.2 20.7 Z" fill="#ffffff"/>
		<path d="M 50.6 20.2 C 49.7 20.6 48.7 20.8 47.6 20.8 C 43.4 20.8 41.3 18.7 41.3 14.7 C 41.3 10.8 43.3 8.9 47.4 8.9 C 48.5 8.9 49.6 9.1 50.6 9.4 L 50.6 10.7 C 49.6 10.3 48.6 10.1 47.5 10.1 C 44.4 10.1 42.8 11.7 42.8 14.7 C 42.8 17.9 44.3 19.5 47.4 19.5 C 47.9 19.5 48.5 19.5 49.1 19.3 L 49.1 15.4 L 50.6 15.4 L 50.6 20.2 L 50.6 20.2 Z" fill="#ffffff"/>
		<path d="M 53 16.2 L 53 9 L 54.5 9 L 54.5 16.2 C 54.5 18.4 55.6 19.5 57.8 19.5 C 60 19.5 61.1 18.4 61.1 16.2 L 61.1 9 L 62.6 9 L 62.6 16.2 C 62.6 19.2 61 20.8 57.8 20.8 C 54.6 20.8 53 19.2 53 16.2 L 53 16.2 Z" fill="#ffffff"/>
		<path d="M 66.7 9 L 66.7 19.5 L 72.8 19.5 L 72.8 20.7 L 65.2 20.7 L 65.2 9 L 66.7 9 Z" fill="#ffffff"/>
		<path d="M 74.9 20.7 L 73.4 20.7 L 79.1 7.5 L 84.8 20.7 L 83.2 20.7 L 81.7 17 L 77.9 17 L 78.3 15.8 L 81.2 15.8 L 79 10.5 L 74.9 20.7 Z" fill="#ffffff"/>
		<path d="M 86.4 20.7 L 86.4 9 L 91.3 9 C 93.5 9 94.6 9.9 94.6 11.8 C 94.6 13.3 93.5 14.4 91.4 15.2 L 95.4 20.7 L 93.4 20.7 L 89.7 15.4 L 89.7 14.4 C 91.9 14.1 93 13.2 93 11.9 C 93 10.8 92.4 10.2 91.2 10.2 L 87.9 10.2 L 87.9 20.7 L 86.4 20.7 Z" fill="#ffffff"/>
		<path d="M 100.9 9 L 100.9 17.3 C 100.9 19.6 99.6 20.7 97 20.7 L 97 19.5 C 98.6 19.5 99.5 18.7 99.5 17.3 L 99.5 9 L 100.9 9 Z" fill="#b42d30"/>
		<path d="M 103.6 20.3 L 103.6 18.9 C 104.8 19.3 106.1 19.5 107.5 19.5 C 109.5 19.5 110.5 18.8 110.5 17.3 C 110.5 16.1 109.8 15.5 108.3 15.5 L 106.8 15.5 C 104.4 15.5 103.2 14.4 103.2 12.3 C 103.2 10 104.8 8.9 107.8 8.9 C 109.2 8.9 110.4 9.1 111.6 9.4 L 111.6 10.8 C 110.4 10.4 109.2 10.1 107.8 10.1 C 105.7 10.1 104.7 10.8 104.7 12.3 C 104.7 13.5 105.4 14.1 106.8 14.1 L 108.3 14.1 C 110.8 14.1 112 15.2 112 17.3 C 112 19.6 110.5 20.8 107.5 20.8 C 106.1 20.8 104.8 20.6 103.6 20.3 L 103.6 20.3 Z" fill="#b42d30"/>
		<path d="M 13.5 0 L 0 4.8 L 2.1 22.7 L 13.5 29 L 24.9 22.6 L 27 4.7 L 13.5 0 Z" fill="#b1b1b1"/>
		<path d="M 25.7 5.7 L 13.4 1.5 L 13.4 27.5 L 23.7 21.7 L 25.7 5.7 Z" fill="#b42d30"/>
		<path d="M 1.5 5.8 L 3.3 21.8 L 13.4 27.5 L 13.4 1.5 L 1.5 5.8 Z" fill="#e13136"/>
		<path d="M 16.3 14.4 L 13.5 8.5 L 11 14.4 L 16.3 14.4 ZM 17.4 16.9 L 9.9 16.9 L 8.2 21.2 L 5.1 21.2 L 13.4 2.5 L 22.1 21.2 L 19.2 21.2 L 17.4 16.9 Z" fill="#f1f1f1"/>
		<path d="M 13.4 2.5 L 13.5 8.5 L 16.3 14.4 L 13.4 14.4 L 13.4 16.9 L 17.4 16.9 L 19.2 21.2 L 22.2 21.3 L 13.4 2.5 Z" fill="#b1b1b1"/>
	</g>
</svg>