<?xml version="1.0" standalone="no"?>

<svg viewBox="0 0 66 66" style="background-color:#ffffff00" version="1.1" xmlns="http://www.w3.org/2000/svg" xmlns:xlink="http://www.w3.org/1999/xlink" xml:space="preserve" x="0px" y="0px" width="100%" height="100%">
	<g id="Layer%201">
		<g>
			<path d="M 33 6.5 L 8.5 15.3 L 12.3 48 L 33 59.5 L 53.7 47.8 L 57.5 15.1 L 33 6.5 Z" fill="#b0b0b0"/>
			<path d="M 55.1 16.9 L 32.8 9.2 L 32.8 56.8 L 51.5 46.2 L 55.1 16.9 Z" fill="#b32c2f"/>
			<path d="M 11.2 17.1 L 14.5 46.3 L 32.8 56.8 L 32.8 9.2 L 11.2 17.1 Z" fill="#e03035"/>
			<path d="M 38.1 32.8 L 33 22 L 28.5 32.8 L 38.1 32.8 ZM 40.1 37.4 L 26.5 37.4 L 23.4 45.2 L 17.8 45.2 L 32.8 11.1 L 48.6 45.2 L 43.3 45.2 L 40.1 37.4 Z" fill="#f0f0f0"/>
			<path d="M 32.8 11.1 L 33 22 L 38.1 32.8 L 32.8 32.8 L 32.8 37.4 L 40.1 37.4 L 43.3 45.2 L 48.8 45.4 L 32.8 11.1 Z" fill="#b0b0b0"/>
		</g>
	</g>
</svg>