<?xml version="1.0" standalone="no"?>

<svg viewBox="0 0 34 34" style="background-color:#ffffff00" version="1.1" xmlns="http://www.w3.org/2000/svg" xmlns:xlink="http://www.w3.org/1999/xlink" xml:space="preserve" x="0px" y="0px" width="100%" height="100%">
	<g id="Layer%201">
		<g>
			<path d="M 9.7 15 L 13.7 15 L 13.7 18.9 L 9.7 18.9 L 9.7 15 Z" fill="#ffffff"/>
			<path d="M 15.8 15 L 19.9 15 L 19.9 18.9 L 15.8 18.9 L 15.8 15 Z" fill="#ffffff"/>
			<path d="M 21.9 15 L 26 15 L 26 18.9 L 21.9 18.9 L 21.9 15 Z" fill="#ffffff"/>
			<path d="M 15.8 20.8 L 19.9 20.8 L 19.9 24.7 L 15.8 24.7 L 15.8 20.8 Z" fill="#ffffff"/>
			<path d="M 21.9 20.8 L 26 20.8 L 26 24.7 L 21.9 24.7 L 21.9 20.8 Z" fill="#ffffff"/>
			<path d="M 9.7 26.1 L 13.7 26.1 L 13.7 30 L 9.7 30 L 9.7 26.1 Z" fill="#ffffff"/>
			<path d="M 15.8 26.1 L 19.9 26.1 L 19.9 30 L 15.8 30 L 15.8 26.1 Z" fill="#ffffff"/>
			<path d="M 21.9 26.1 L 26 26.1 L 26 30 L 21.9 30 L 21.9 26.1 Z" fill="#ffffff"/>
			<path d="M 7.9 24.4 L 13.7 24.4 L 13.7 20.6 L 7.9 20.6 L 7.9 18.8 L 4 22.5 L 7.9 26.3 L 7.9 24.4 Z" fill="#ffffff"/>
		</g>
	</g>
</svg>