<?xml version="1.0" standalone="no"?>

<svg viewBox="0 0 295 239" style="background-color:#ffffff00" version="1.1" xmlns="http://www.w3.org/2000/svg" xmlns:xlink="http://www.w3.org/1999/xlink" xml:space="preserve" x="0px" y="0px" width="100%" height="100%">
	<g id="Layer%201">
		<path d="M 0 12.8 L 0 194.3 C 0 205.4 1.6 207 12.8 207 L 117 207 L 117 222 C 117 222 107.5 223 99 234 C 99 234 98 239 110 239 L 143 239 L 150 239 L 183 239 C 195 239 194 234 194 234 C 185.5 223 176 222 176 222 L 176 207 L 282.3 207 C 293.4 207 295 205.4 295 194.3 L 295 12.8 C 295 1.6 293.4 0 282.3 0 L 12.8 0 C 1.6 0 0 1.6 0 12.8 Z" fill="#333333"/>
	</g>
</svg>