<?xml version="1.0" standalone="no"?>

<svg viewBox="0 0 69 129" style="background-color:#ffffff00" version="1.1" xmlns="http://www.w3.org/2000/svg" xmlns:xlink="http://www.w3.org/1999/xlink" xml:space="preserve" x="0px" y="0px" width="100%" height="100%">
	<g id="Layer%201">
		<path id="CEL" d="M 5 115 L 5 115 ZM 68.6 6 C 68.6 4 67.8 -0.2 62.3 -0.2 C 62.3 -0.2 17.5 -0.6 7.8 -0.2 C 1.8 0 0 5.6 0 7.5 C -0.1 82.6 -0.3 107.7 0 117.8 C 0.1 121.5 3.9 125.5 6.3 125.8 C 15.5 129.3 36.8 129.3 52 128.2 C 59 127.7 65.4 125.2 66.3 124.2 C 67.4 123 68.1 121.2 68.3 117.8 C 68.7 108.5 68.6 83.9 68.6 6 Z" fill="#333333"/>
	</g>
</svg>