<?xml version="1.0" standalone="no"?>

<svg viewBox="0 0 24 24" style="background-color:#ffffff00" version="1.1" xmlns="http://www.w3.org/2000/svg" xmlns:xlink="http://www.w3.org/1999/xlink" xml:space="preserve" x="0px" y="0px" width="100%" height="100%">
	<g id="Layer%201">
		<g>
			<path d="M 0 0 L 24 0 L 24 24 L 0 24 L 0 0 Z" fill="none"/>
			<path d="M 19 19 L 5 19 L 5 5 L 12 5 L 12 3 L 5 3 C 3.9 3 3 3.9 3 5 L 3 19 C 3 20.1 3.9 21 5 21 L 19 21 C 20.1 21 21 20.1 21 19 L 21 12 L 19 12 L 19 19 ZM 14 3 L 14 5 L 17.6 5 L 7.8 14.8 L 9.2 16.2 L 19 6.4 L 19 10 L 21 10 L 21 3 L 14 3 Z" fill="#ffffff"/>
		</g>
	</g>
</svg>