<?xml version="1.0" standalone="no"?>

<svg viewBox="0 0 148 148" style="background-color:#ffffff00" version="1.1" xmlns="http://www.w3.org/2000/svg" xmlns:xlink="http://www.w3.org/1999/xlink" xml:space="preserve" x="0px" y="0px" width="100%" height="100%">
	<defs>
		<filter id="filter1" x="-100%" y="-100%" width="300%" height="300%">
			<!-- Glow -->
			<feColorMatrix result="out" in="SourceGraphic" type="matrix" values="0 0 0 0 0  0 0 0 0 0  0 0 0 0 0  0 0 0 0.1 0"/>
			<feMorphology result="out" in="out" operator="dilate" radius="2"/>
			<feGaussianBlur result="out" in="out" stdDeviation="1.5"/>
			<feBlend in="SourceGraphic" in2="out" mode="normal" result="Glow1"/>
		</filter>
		<filter id="filter2" x="-100%" y="-100%" width="300%" height="300%">
			<!-- Glow -->
			<feColorMatrix result="out" in="SourceGraphic" type="matrix" values="0 0 0 0 0  0 0 0 0 0  0 0 0 0 0  0 0 0 0.1 0"/>
			<feMorphology result="out" in="out" operator="dilate" radius="2"/>
			<feGaussianBlur result="out" in="out" stdDeviation="1.5"/>
			<feBlend in="SourceGraphic" in2="out" mode="normal" result="Glow2"/>
		</filter>
		<filter id="filter3" x="-100%" y="-100%" width="300%" height="300%">
			<!-- Glow -->
			<feColorMatrix result="out" in="SourceGraphic" type="matrix" values="0 0 0 0 0  0 0 0 0 0  0 0 0 0 0  0 0 0 0.1 0"/>
			<feMorphology result="out" in="out" operator="dilate" radius="2"/>
			<feGaussianBlur result="out" in="out" stdDeviation="1.5"/>
			<feBlend in="SourceGraphic" in2="out" mode="normal" result="Glow3"/>
		</filter>
		<filter id="filter4" x="-100%" y="-100%" width="300%" height="300%">
			<!-- Glow -->
			<feColorMatrix result="out" in="SourceGraphic" type="matrix" values="0 0 0 0 0  0 0 0 0 0  0 0 0 0 0  0 0 0 0.1 0"/>
			<feMorphology result="out" in="out" operator="dilate" radius="2"/>
			<feGaussianBlur result="out" in="out" stdDeviation="1.5"/>
			<feBlend in="SourceGraphic" in2="out" mode="normal" result="Glow4"/>
		</filter>
		<filter id="filter5" x="-100%" y="-100%" width="300%" height="300%">
			<!-- Glow -->
			<feColorMatrix result="out" in="SourceGraphic" type="matrix" values="0 0 0 0 0  0 0 0 0 0  0 0 0 0 0  0 0 0 0.1 0"/>
			<feMorphology result="out" in="out" operator="dilate" radius="2"/>
			<feGaussianBlur result="out" in="out" stdDeviation="1.5"/>
			<feBlend in="SourceGraphic" in2="out" mode="normal" result="Glow5"/>
		</filter>
		<filter id="filter6" x="-100%" y="-100%" width="300%" height="300%">
			<!-- Glow -->
			<feColorMatrix result="out" in="SourceGraphic" type="matrix" values="0 0 0 0 0  0 0 0 0 0  0 0 0 0 0  0 0 0 0.1 0"/>
			<feMorphology result="out" in="out" operator="dilate" radius="2"/>
			<feGaussianBlur result="out" in="out" stdDeviation="1.5"/>
			<feBlend in="SourceGraphic" in2="out" mode="normal" result="Glow6"/>
		</filter>
	</defs>
	<g id="Exporter">
		<g>
			<g>
				<path filter="url(#filter1)" d="M 75.8 80.9 L 95.9 117.6 C 89.6 122 81.4 119 81.4 119 C 64.9 111 70.3 90.8 70.3 90.8 L 103.1 33.9 L 97.6 30.7 L 65.2 86.8 C 65.2 86.8 57.7 119.4 83.1 124.8 C 83.1 124.8 94.5 127.3 102.9 117.5 L 79 75.6 " fill="#ffffff"/>
				<path filter="url(#filter2)" d="M 67.6 68.5 L 25.7 68.2 C 24.9 60.6 31.6 54.9 31.6 54.9 C 46.5 44.3 61.6 58.8 61.6 58.8 L 95.5 115.1 L 102 115.3 L 67.5 56.4 C 67.5 56.4 42.7 34 25.7 53.6 C 25.7 53.6 17.9 62.4 22.4 74.4 L 70.7 73.9 " fill="#ffffff"/>
				<path filter="url(#filter3)" d="M 75.9 64.8 L 55.2 28.3 C 61.4 23.8 69.7 26.7 69.7 26.7 C 86.4 34.4 81.3 54.7 81.3 54.7 L 49.5 112.2 L 55.1 115.3 L 86.4 58.6 C 86.4 58.6 93.4 25.9 67.9 21 C 67.9 21 56.4 18.6 48.2 28.6 L 72.8 70.1 " fill="#ffffff"/>
				<path filter="url(#filter4)" d="M 81.4 75.8 L 123.3 76.8 C 124 84.4 117.2 90 117.2 90 C 102 100.4 87.2 85.6 87.2 85.6 L 54.3 28.7 L 47.8 29.3 L 81.2 87.9 C 81.2 87.9 105.7 110.7 123 91.5 C 123 91.5 131 82.8 126.6 70.7 L 78.4 70.3 " fill="#ffffff"/>
				<path filter="url(#filter5)" d="M 80.3 69.9 L 102.8 34.5 C 109.7 37.9 111 46.6 111 46.6 C 112.1 64.9 91.7 70 91.7 70 L 26 67.8 L 22.3 74.8 L 90.7 76.3 C 90.7 76.3 122.8 67.1 115.2 42.3 C 115.2 42.3 111.9 31 99.3 28.5 L 74.1 69.7 " fill="#ffffff"/>
				<path filter="url(#filter6)" d="M 70.7 76.3 L 48.9 112 C 41.9 108.8 40.5 100.1 40.5 100.1 C 39.1 81.8 59.3 76.4 59.3 76.4 L 122.3 76.5 L 126 70.3 L 60.3 70.1 C 60.3 70.1 28.3 79.8 36.3 104.5 C 36.3 104.5 39.8 115.7 52.5 118 L 76.9 76.4 " fill="#ffffff"/>
			</g>
			<g>
				<path d="M 55 28 C 55 28 70.1 20.3 77.8 33.8 C 77.8 33.8 88.8 46.8 76 64 L 55 28 Z" fill="#ff5722"/>
				<path d="M 96.1 117.8 C 96.1 117.8 80.3 125 72.9 111.3 C 72.9 111.3 62.3 98 76.3 81.2 L 96.1 117.8 Z" fill="#18b364"/>
				<path d="M 123 77 C 123 77 122.7 94.7 106.4 94 C 106.4 94 90 96.3 82 76.7 L 123 77 Z" fill="#1e71a2"/>
				<path d="M 102.6 34.3 C 102.6 34.3 119 42.9 109.4 57.4 C 109.4 57.4 102.9 73.1 82 69.5 L 102.6 34.3 Z" fill="#ff9c22"/>
				<path d="M 48.9 112 C 48.9 112 32.6 103.4 41.9 89.1 C 41.9 89.1 48.2 73.8 69 76.5 L 48.9 112 Z" fill="#df1e62"/>
				<path d="M 25.9 67.5 C 25.9 67.5 25 49.1 42 50.3 C 42 50.3 59.3 48.2 67 69 L 25.9 67.5 Z" fill="#61a0c6"/>
			</g>
		</g>
	</g>
</svg>